<svg xmlns="http://www.w3.org/2000/svg" viewBox="0 0 33 26">
    <path
        d="M8.785 3.63c1.81-1.137 3.698-1.727 5.613-2.185C17.904.607 21.464.256 25.063.68c.701.081 1.396.233 2.087.382 1.965.422 3.332 1.612 3.82 3.58.323 1.3.487 2.694.409 4.03-.094 1.633-1.296 2.467-2.839 1.986-3.13-.976-6.218-2.104-9.315-3.188-3.383-1.184-6.757-2.387-10.134-3.586-.063-.023-.11-.09-.306-.254zM24.154 22.582c-1.405.548-2.783 1.18-4.217 1.63-3.788 1.186-7.687 1.454-11.62 1.2-.996-.065-1.978-.352-2.96-.569-1.463-.32-2.435-1.283-3.07-2.603-.703-1.458-1.068-3.005-.793-4.63.347-2.054 1.338-2.726 3.343-2.172a63.39 63.39 0 0 1 5.321 1.73c3.465 1.294 6.894 2.682 10.354 3.988 1.168.441 2.384.754 3.576 1.123l.066.303zM24.502 22.32c.288-.27.435-.427.599-.561 1.623-1.315 2.137-2.76 1.4-4.717-.447-1.186-1.199-2.255-1.827-3.37-.19-.34-.426-.655-.777-1.186.45.078.643.063.788.14 2.475 1.344 4.91 2.751 6.898 4.815.105.11.21.217.308.332 1.939 2.237 1.195 4.546-1.669 5.117-1.902.38-3.746.049-5.72-.57zM8.978 13.401c-.323.055-.41.101-.462.074-2.784-1.392-5.468-2.94-7.561-5.338-.339-.386-.59-.884-.769-1.373-.493-1.357.01-2.652 1.327-3.192.741-.304 1.573-.451 2.375-.517 1.49-.121 2.95.135 4.53.66-.454.437-.822.777-1.172 1.132-.979.987-1.44 2.207-.966 3.523.483 1.334 1.21 2.577 1.86 3.84.2.39.502.723.838 1.191z "/>
    </svg>
