<svg xmlns="http://www.w3.org/2000/svg" viewBox="0 0 193 28">
    <path
        d="M 164.72852 0.38476562 C 163.89363 0.38715784 163.2561 1.0041283 163.24414 1.8222656 C 163.23218 2.6595407 163.89319 3.3285641 164.73047 3.3261719 C 165.56057 3.3237797 166.23745 2.6408421 166.2207 1.8203125 C 166.20635 1.011744 165.55383 0.38476563 164.72852 0.38476562 z M 25.419922 0.39453125 C 22.362004 0.34942278 19.332621 0.73910609 16.335938 1.4296875 C 14.153922 1.9327677 12.001841 2.5812539 9.9394531 3.8320312 C 10.161961 4.0120324 10.217286 4.0859433 10.289062 4.1113281 C 14.136301 5.429029 17.981521 6.7511875 21.835938 8.0527344 C 25.364966 9.2435113 28.88191 10.481604 32.449219 11.554688 C 34.207751 12.083152 35.575928 11.168443 35.683594 9.3730469 C 35.772119 7.905345 35.585251 6.3718302 35.216797 4.9433594 C 34.661723 2.7810376 33.104672 1.4736148 30.865234 1.0097656 C 30.078082 0.84591841 29.285444 0.67984433 28.486328 0.58984375 C 27.461116 0.47330453 26.439228 0.40956741 25.419922 0.39453125 z M 150.83008 1.609375 L 150.83008 16.324219 L 153.05078 16.324219 C 153.05078 15.276429 153.04033 14.275336 153.05469 13.275391 C 153.05947 13.060091 153.10974 12.783719 153.24609 12.642578 C 153.90634 11.958405 154.59835 11.313276 155.29688 10.638672 C 155.43802 10.825265 155.56139 10.978394 155.67383 11.138672 C 156.80056 12.734279 157.92468 14.334959 159.05859 15.925781 C 159.17342 16.08606 159.35579 16.30923 159.51367 16.316406 C 160.34138 16.357074 161.17382 16.335938 162.09961 16.335938 C 160.32937 13.871957 158.62992 11.508281 156.92188 9.1328125 C 158.55337 7.6113641 160.13419 6.1357445 161.83984 4.5449219 C 160.81837 4.5449219 159.94845 4.5270559 159.08008 4.5605469 C 158.84086 4.5701157 158.55593 4.6810794 158.37891 4.84375 C 157.29763 5.8389112 156.24076 6.8611401 155.17383 7.8730469 C 154.5064 8.5093759 153.8354 9.1434069 153.16797 9.7773438 C 153.12491 9.758206 153.08017 9.7413549 153.03711 9.7246094 L 153.03711 1.609375 L 150.83008 1.609375 z M 110.61328 1.6171875 L 110.61328 16.310547 L 112.64648 16.310547 C 112.68715 15.860811 112.72603 15.420576 112.77148 14.90625 C 115.73544 17.269758 119.92258 16.437286 121.64258 14.384766 C 123.35062 12.353776 123.43046 8.6215153 121.73438 6.5761719 C 120.76074 5.4039868 119.47687 4.7624166 117.99609 4.5351562 C 116.10624 4.2456983 114.37231 4.6340911 112.76953 5.9785156 L 112.76953 1.6171875 L 110.61328 1.6171875 z M 5.6308594 3.1757812 C 5.2079741 3.1591946 4.7860078 3.165757 4.3613281 3.1992188 C 3.4473697 3.2707577 2.498871 3.4329606 1.6542969 3.7675781 C 0.15416088 4.3606589 -0.4196738 5.7846117 0.14257812 7.2753906 C 0.34594584 7.8130864 0.63237574 8.358585 1.0175781 8.7832031 C 3.4029618 11.418605 6.4602761 13.120381 9.6328125 14.650391 C 9.6926265 14.680391 9.7917018 14.630313 10.160156 14.570312 C 9.7773464 14.055694 9.4323715 13.688645 9.2050781 13.261719 C 8.4633841 11.872479 7.6362266 10.50641 7.0859375 9.0410156 C 6.5452186 7.5940832 7.0706133 6.2525912 8.1855469 5.1679688 C 8.5851046 4.7779662 9.0046911 4.4038312 9.5214844 3.9238281 C 8.1720797 3.491133 6.8995151 3.2255412 5.6308594 3.1757812 z M 186.68164 4.4082031 C 184.88137 4.4130442 183.20757 5.1357076 182.20508 6.1328125 C 180.32719 8.001132 180.01796 11.65289 181.58008 13.958984 C 182.31449 15.042658 183.33959 15.747954 184.58594 16.099609 C 186.83462 16.735938 188.93737 16.43648 190.94922 14.867188 C 190.86071 15.670972 190.84925 16.317916 190.71289 16.9375 C 190.30382 18.808212 189.02749 19.819631 187.11133 19.833984 C 185.37936 19.845945 183.87024 19.319367 182.73633 17.919922 C 182.10239 18.235694 181.49564 18.536577 180.78516 18.890625 C 181.07461 19.251849 181.29413 19.578411 181.56445 19.853516 C 183.52128 21.84623 185.92325 22.269111 188.55469 21.75 C 190.81772 21.305048 192.24998 19.93706 192.77148 17.683594 C 192.9198 17.044872 192.98633 16.371628 192.98633 15.708984 C 193.00786 12.228312 192.99609 8.7482502 192.99609 5.2675781 L 192.99609 4.6074219 L 190.99609 4.6074219 C 190.94825 5.0499816 190.90331 5.4671575 190.85547 5.9121094 C 189.55874 4.8362109 188.08185 4.4044378 186.68164 4.4082031 z M 144.54297 4.4160156 C 143.92578 4.3714606 143.30027 4.4202844 142.66992 4.5566406 C 141.61017 4.7862932 140.73119 5.3219574 139.98242 6.1855469 C 139.89152 5.719065 139.83768 5.3291418 139.73242 4.9511719 C 139.69654 4.8124234 139.54515 4.6126454 139.4375 4.6054688 C 138.87294 4.5695855 138.30675 4.5878906 137.74219 4.5878906 L 137.74219 16.304688 L 139.98438 16.304688 C 139.98437 14.046437 139.95323 11.821538 140.00586 9.6015625 C 140.01782 9.0585298 140.20839 8.4645287 140.48828 7.9980469 C 141.26575 6.7086433 142.86807 6.1537648 144.50195 6.5078125 C 145.74112 6.7757405 146.43944 7.4895453 146.65234 8.7382812 C 146.71215 9.0899368 146.7437 9.4521538 146.74609 9.8085938 C 146.75566 11.708012 146.75 13.609908 146.75 15.511719 L 146.75 16.320312 L 148.99219 16.320312 C 148.99219 13.667347 149.05682 11.066256 148.9707 8.4707031 C 148.9109 6.7554853 147.98237 5.4996559 146.36523 4.8417969 C 145.76838 4.5989871 145.16016 4.4605706 144.54297 4.4160156 z M 174.82422 4.421875 C 173.23779 4.307544 171.53234 4.766999 170.49023 5.9765625 C 170.44239 6.0315834 170.36346 6.0602134 170.27734 6.1152344 C 170.1673 5.5841628 170.06639 5.0992943 169.9707 4.6328125 L 168.02734 4.6328125 L 168.02734 16.324219 L 170.2793 16.324219 L 170.2793 15.726562 C 170.2793 13.788869 170.35111 11.848925 170.25781 9.9160156 C 170.16691 8.0429117 171.68483 6.7031415 173.05078 6.4902344 C 175.02914 6.1792465 177.01016 6.8005071 177.0293 9.4941406 C 177.04604 11.55623 177.05293 13.619552 177.0625 15.681641 L 177.0625 16.320312 L 179.26758 16.320312 C 179.26758 13.609933 179.31742 10.956336 179.24805 8.3105469 C 179.21456 6.98526 178.51911 5.9270878 177.38281 5.2070312 C 176.68578 4.7647706 175.77608 4.4904736 174.82422 4.421875 z M 62.953125 4.4414062 C 62.692374 4.4581518 62.369385 4.4641168 62.048828 4.5 C 60.613499 4.6722394 59.276154 5.1042058 58.197266 6.1113281 C 56.565775 7.6351688 56.286865 9.5711171 56.607422 11.652344 C 56.927979 13.728786 58.111331 15.140545 60.058594 15.896484 C 61.424548 16.427556 62.843287 16.50686 64.292969 16.341797 C 67.106213 16.023632 69.064663 14.286157 69.478516 11.556641 C 69.811033 9.3558033 69.434529 7.3182323 67.556641 5.8398438 C 66.231354 4.7968382 64.663558 4.4701128 62.953125 4.4414062 z M 97.894531 4.453125 C 97.695739 4.4452242 97.494653 4.4464063 97.291016 4.4550781 C 95.640388 4.5268446 94.167401 5.0707895 93 6.28125 C 91.248899 8.0945486 90.980051 11.586469 92.408203 13.796875 C 93.429679 15.378129 94.959064 16.116778 96.767578 16.310547 C 98.571308 16.501924 100.23367 16.077845 101.69531 14.876953 C 101.74555 15.419986 101.78702 15.862764 101.83008 16.3125 L 103.86523 16.3125 L 103.86523 4.6269531 L 101.83008 4.6269531 C 101.78463 5.0575517 101.74013 5.4752724 101.6875 5.9824219 C 100.55718 4.9776918 99.286076 4.5084309 97.894531 4.453125 z M 129.89062 4.453125 C 128.08314 4.4542025 126.37766 5.1827922 125.34961 6.2539062 C 123.45976 8.2274832 123.29973 11.989009 125.0293 14.208984 C 125.89528 15.321364 127.06896 15.953017 128.42773 16.208984 C 130.45394 16.589346 132.34151 16.251159 134.01367 14.882812 C 134.07109 15.404315 134.12164 15.856465 134.17188 16.308594 L 136.17773 16.308594 L 136.17773 4.6328125 L 134.16016 4.6328125 C 134.1147 5.07298 134.07128 5.4827369 134.02344 5.9492188 C 132.76334 4.8911124 131.29645 4.4522869 129.89062 4.453125 z M 49.158203 4.4570312 C 48.716466 4.4689923 48.272479 4.50947 47.828125 4.5722656 C 47.067401 4.6799153 46.295062 4.9590881 45.613281 5.3203125 C 44.572668 5.8753063 44.136097 6.834946 44.224609 8.0214844 C 44.303552 9.0788432 44.920355 9.7533741 45.84375 10.107422 C 46.757576 10.456685 47.715867 10.708044 48.667969 10.947266 C 49.864076 11.248685 51.081676 11.463328 52.275391 11.769531 C 52.727519 11.884358 53.153176 12.158972 53.169922 12.71875 C 53.184275 13.252214 52.851202 13.63269 52.40625 13.792969 C 51.724469 14.039367 51.003456 14.294437 50.292969 14.318359 C 48.697362 14.370988 47.064142 14.374374 45.980469 12.824219 C 45.325002 13.101716 44.66982 13.379389 44 13.664062 C 44.519111 14.778834 45.361882 15.48678 46.433594 15.888672 C 48.746865 16.757046 51.075688 16.693759 53.355469 15.787109 C 53.915247 15.564633 54.45553 15.151786 54.857422 14.697266 C 56.213807 13.163856 55.770572 11.075935 53.945312 10.162109 C 53.627148 10.001831 53.291745 9.8480352 52.947266 9.7714844 C 51.74159 9.5011641 50.523157 9.2885798 49.322266 9.0039062 C 48.578287 8.8268824 47.823284 8.6334958 47.136719 8.3105469 C 46.447761 7.9875979 46.454347 7.214392 47.107422 6.8125 C 47.41841 6.6211228 47.79981 6.4644502 48.15625 6.4453125 C 49.010271 6.3998604 49.875812 6.3808739 50.722656 6.4765625 C 51.586246 6.5746433 52.398904 6.8847453 52.896484 7.7148438 C 53.587834 7.4229936 54.257475 7.1377501 54.929688 6.8554688 C 54.64023 6.144981 53.985698 5.5505263 53.052734 5.1582031 C 51.791439 4.6289257 50.483415 4.421148 49.158203 4.4570312 z M 77.689453 4.4609375 C 76.183554 4.3467093 74.631094 4.7120222 73.443359 5.5839844 C 73.295042 5.6940262 73.145184 5.8039295 72.939453 5.9570312 C 72.889217 5.4474896 72.846869 5.0340231 72.808594 4.6464844 L 70.791016 4.6464844 L 70.791016 19.458984 L 72.953125 19.458984 L 72.953125 14.681641 C 73.103835 14.798859 73.16114 14.834968 73.208984 14.882812 C 75.416998 16.999922 79.26581 16.613154 81.126953 15.134766 C 82.684285 13.897991 83.127831 12.187799 83.123047 10.302734 C 83.118262 8.7669327 82.75623 7.3520238 81.658203 6.2109375 C 80.654669 5.1691281 79.195352 4.5751657 77.689453 4.4609375 z M 90.978516 4.6035156 C 89.40542 4.5693705 87.983868 4.9695449 86.736328 6.1835938 C 86.702837 5.7003664 86.698916 5.3245541 86.636719 4.9609375 C 86.615189 4.8365423 86.452914 4.6434563 86.347656 4.6386719 C 85.742426 4.6075731 85.133301 4.625 84.492188 4.625 L 84.492188 16.324219 L 86.753906 16.324219 L 86.753906 15.691406 C 86.753906 13.899638 86.750636 12.104269 86.757812 10.3125 C 86.757813 10.030219 86.775451 9.7332109 86.849609 9.4628906 C 87.292169 7.8624991 88.440715 7.0544471 89.998047 6.7578125 C 90.550648 6.6525551 91.119077 6.6478928 91.662109 6.5976562 L 91.662109 4.6425781 C 91.431261 4.6210482 91.203244 4.6083935 90.978516 4.6035156 z M 163.64258 4.6113281 L 163.64258 16.3125 L 165.83594 16.3125 L 165.83594 4.6113281 L 163.64258 4.6113281 z M 186.68555 6.421875 C 187.37488 6.3979482 188.08674 6.5293972 188.74609 6.828125 C 188.76284 6.8353016 188.77622 6.8443859 188.79297 6.8515625 C 190.08955 7.5237748 191.17065 8.3361848 190.82617 9.9628906 C 190.941 11.749875 190.39356 13.121997 188.80273 13.925781 C 187.08034 14.796547 184.86716 14.371663 183.75 12.974609 C 182.61609 11.560811 182.62649 9.1626783 183.76758 7.765625 C 184.44936 6.9313402 185.53665 6.461753 186.68555 6.421875 z M 97.849609 6.4335938 C 100.20355 6.4862225 101.76098 8.0946894 101.70117 10.419922 C 101.63658 12.905433 100.05461 14.427038 97.628906 14.345703 C 95.363479 14.269152 93.752301 12.590039 93.792969 10.34375 C 93.833636 7.9515355 95.466964 6.380965 97.849609 6.4335938 z M 129.9707 6.4335938 C 132.3988 6.4168482 134.00972 7.9371221 134.03125 10.269531 C 134.05517 12.783749 132.54977 14.326565 130.05469 14.345703 C 127.78687 14.364841 126.15151 12.711512 126.13477 10.388672 C 126.12041 8.0730082 127.69331 6.4503393 129.9707 6.4335938 z M 76.675781 6.4375 C 79.1589 6.3178893 80.726774 7.7032463 80.832031 10.107422 C 80.944465 12.681445 79.560411 14.2361 77.060547 14.34375 C 74.627665 14.449007 73.025573 12.947281 72.939453 10.478516 C 72.855726 8.1700286 74.352941 6.5499341 76.675781 6.4375 z M 117.07812 6.4394531 C 119.36987 6.5662405 120.91832 8.4666613 120.65039 10.787109 C 120.43748 12.631507 119.4722 13.766425 117.74023 14.208984 C 116.14702 14.615661 114.21226 13.929786 113.2793 12.652344 C 112.71713 11.882051 112.76036 11.00688 112.78906 10.011719 C 112.70533 9.2151113 112.73161 8.3566842 113.52344 7.6796875 C 114.55927 6.7969603 115.73131 6.3652945 117.07812 6.4394531 z M 63.134766 6.4960938 C 63.596463 6.5032704 64.057516 6.5686463 64.515625 6.6894531 C 66.515516 7.2205247 67.582957 8.9353822 67.248047 11.064453 C 66.913137 13.183955 65.410733 14.35288 62.779297 14.345703 C 62.52333 14.305035 62.017944 14.269365 61.537109 14.142578 C 59.606592 13.640213 58.534125 11.932789 58.816406 9.8515625 C 59.053235 8.0932848 60.013691 7.0459842 61.748047 6.6464844 C 62.21094 6.5400308 62.673068 6.4889171 63.134766 6.4960938 z M 27.160156 13.5625 C 27.559714 14.14635 27.827199 14.493339 28.044922 14.867188 C 28.760298 16.09258 29.617338 17.266458 30.126953 18.570312 C 30.966742 20.721096 30.378747 22.309281 28.529297 23.753906 C 28.342677 23.9016 28.175437 24.075707 27.847656 24.371094 C 30.096664 25.051867 32.197574 25.415742 34.365234 24.998047 C 37.628688 24.37035 38.475912 21.832708 36.267578 19.375 C 36.155128 19.248076 36.035644 19.129766 35.916016 19.009766 C 33.65026 16.741289 30.877471 15.195683 28.056641 13.71875 C 27.891554 13.633365 27.672164 13.647885 27.160156 13.5625 z M 3.9375 16.605469 C 2.637442 16.661935 1.928892 17.500656 1.6328125 19.193359 C 1.319387 20.979525 1.7356013 22.681654 2.5371094 24.283203 C 3.2596629 25.734751 4.367541 26.791452 6.0351562 27.144531 C 7.1524824 27.382225 8.2721759 27.697992 9.40625 27.769531 C 13.887517 28.048764 18.330304 27.753073 22.646484 26.449219 C 24.280604 25.955369 25.850548 25.260515 27.451172 24.658203 C 27.427246 24.547433 27.400879 24.436942 27.376953 24.326172 C 26.017978 23.920015 24.632999 23.576415 23.302734 23.091797 C 19.359793 21.656403 15.451633 20.130532 11.503906 18.708984 C 9.5132952 17.991287 7.4870462 17.353213 5.4414062 16.808594 C 4.8701822 16.656285 4.3708527 16.586647 3.9375 16.605469 z M 55.261719 22.101562 C 54.822747 22.098273 54.383724 22.120124 53.953125 22.167969 C 52.503443 22.330639 51.800116 23.098314 51.601562 24.53125 C 51.336027 26.452198 52.303889 27.790894 54.117188 27.951172 C 54.775046 28.008585 55.442189 28.017033 56.097656 27.966797 C 57.954015 27.825656 58.795361 26.894104 58.792969 25.044922 C 58.790577 23.36798 58.072623 22.378877 56.570312 22.1875 C 56.139714 22.133675 55.70069 22.104852 55.261719 22.101562 z M 47.044922 22.126953 C 46.559302 22.120375 46.079566 22.125984 45.603516 22.173828 C 44.670552 22.267124 44.260493 22.780594 44.224609 23.603516 C 44.183942 24.495812 44.502447 24.913516 45.5 25.171875 C 46.141113 25.33933 46.797461 25.441966 47.443359 25.587891 C 47.878742 25.685971 48.138717 25.954954 48.117188 26.423828 C 48.095658 26.919017 47.781132 27.178521 47.324219 27.216797 C 46.738126 27.267033 46.147518 27.273438 45.556641 27.273438 C 45.133219 27.27583 44.71038 27.23486 44.255859 27.210938 L 44.255859 27.935547 C 45.353886 27.935547 46.426138 27.989735 47.488281 27.917969 C 48.134179 27.874909 48.678642 27.526455 48.865234 26.818359 C 49.140339 25.775354 48.711747 25.048103 47.611328 24.775391 C 46.953469 24.61272 46.277878 24.517458 45.615234 24.369141 C 45.213342 24.278236 45.004739 23.995445 45.021484 23.583984 C 45.03823 23.198838 45.243321 22.951551 45.630859 22.875 C 45.807883 22.839117 45.983132 22.791455 46.160156 22.789062 C 46.928057 22.779494 47.698563 22.783203 48.521484 22.783203 L 48.521484 22.152344 C 48.021512 22.152344 47.530541 22.133532 47.044922 22.126953 z M 81.802734 22.150391 C 81.324291 22.147998 81.193829 22.36988 81.074219 22.738281 C 80.91394 23.231077 80.715451 23.711646 80.53125 24.197266 C 80.198732 25.070424 79.866251 25.943656 79.488281 26.931641 C 79.366278 26.651752 79.292666 26.494702 79.230469 26.332031 C 78.783125 25.181376 78.33753 24.027608 77.892578 22.876953 C 77.588767 22.092307 77.588244 22.092356 76.703125 22.238281 C 77.41122 24.006128 78.125056 25.758422 78.816406 27.521484 C 78.943194 27.844433 79.120607 27.938575 79.453125 27.943359 C 79.799996 27.948144 79.958953 27.821193 80.076172 27.507812 C 80.533085 26.282999 81.009202 25.065293 81.480469 23.847656 C 81.537882 23.694555 81.61325 23.546347 81.730469 23.283203 C 82.314169 24.763984 82.851983 26.107822 83.371094 27.457031 C 83.493097 27.772804 83.623741 27.947705 84.013672 27.945312 C 84.38925 27.94292 84.545088 27.801904 84.671875 27.476562 C 85.30342 25.861818 85.959571 24.254492 86.605469 22.644531 C 86.66049 22.503391 86.701717 22.358619 86.751953 22.203125 C 85.890756 22.14332 85.890581 22.142937 85.603516 22.896484 C 85.311665 23.664385 85.019291 24.433271 84.722656 25.201172 C 84.512141 25.744205 84.292198 26.285546 84.041016 26.921875 C 83.933366 26.670692 83.869035 26.526784 83.816406 26.380859 C 83.359493 25.175183 82.904179 23.970862 82.447266 22.767578 C 82.332439 22.463767 82.295531 22.152783 81.802734 22.150391 z M 99.636719 22.152344 C 98.945967 22.159221 98.254168 22.20473 97.566406 22.164062 L 97.566406 27.890625 L 98.400391 27.890625 L 98.400391 25.701172 C 98.840558 25.701172 99.217097 25.733588 99.587891 25.695312 C 100.03045 25.64986 100.32782 25.794783 100.57422 26.167969 C 100.87085 26.615313 101.26459 26.998604 101.54688 27.453125 C 101.89375 28.008119 102.34902 27.993339 102.9375 27.859375 C 102.35619 27.110612 101.80855 26.407648 101.21289 25.644531 C 101.45211 25.56798 101.60364 25.528116 101.75195 25.470703 C 102.42177 25.214736 102.77388 24.677815 102.77148 23.921875 C 102.77148 23.122875 102.4308 22.579216 101.70117 22.371094 C 101.01819 22.176128 100.32747 22.145466 99.636719 22.152344 z M 91.289062 22.173828 C 90.966114 22.13316 90.810623 22.280461 90.671875 22.550781 C 89.827423 24.208586 88.96491 25.856745 88.113281 27.509766 C 88.053476 27.624592 88.023529 27.754511 87.980469 27.878906 C 88.585699 28.046361 88.975759 27.902499 89.150391 27.316406 C 89.200627 27.146559 89.325399 27.001439 89.382812 26.833984 C 89.514384 26.460799 89.743714 26.313529 90.150391 26.339844 C 90.738875 26.378119 91.338614 26.412488 91.919922 26.335938 C 92.773942 26.221111 93.325671 26.498223 93.5625 27.337891 C 93.741916 27.971827 94.181728 28.018094 94.755859 27.876953 C 94.722368 27.774088 94.705805 27.686562 94.669922 27.617188 C 93.78241 25.899577 92.884438 24.18963 92.013672 22.464844 C 91.836648 22.11558 91.559383 22.207319 91.289062 22.173828 z M 61.832031 22.193359 C 61.832031 22.427796 61.831592 22.621123 61.833984 22.8125 L 61.833984 27.279297 C 61.833984 27.992177 61.881899 28.02468 62.621094 27.847656 C 62.635447 27.799812 62.662109 27.749455 62.662109 27.699219 C 62.666894 27.251875 62.669483 26.802813 62.671875 26.355469 C 62.674267 25.618667 62.673597 25.619141 63.398438 25.619141 L 65.878906 25.619141 C 66.041577 25.092853 65.913354 24.896196 65.427734 24.929688 C 64.963645 24.960786 64.493826 24.935547 64.027344 24.935547 C 62.666174 24.935547 62.667091 24.936221 62.671875 23.591797 C 62.674267 22.902839 62.674278 22.902344 63.384766 22.902344 L 66.259766 22.902344 L 66.259766 22.193359 L 61.832031 22.193359 z M 106.08984 22.205078 C 106.08984 24.030338 106.08482 25.821952 106.10156 27.611328 C 106.10156 27.716586 106.27194 27.907764 106.36523 27.910156 C 107.74315 27.931686 109.11769 27.923828 110.51953 27.923828 L 110.51953 27.185547 L 106.97461 27.185547 C 106.97461 26.70232 107.00942 26.289489 106.96875 25.882812 C 106.92091 25.392409 107.11208 25.266019 107.57617 25.285156 C 108.41105 25.318647 109.25062 25.294922 110.08789 25.294922 L 110.08789 24.623047 L 107.01367 24.623047 L 107.01367 22.875 C 108.15715 22.875 109.27361 22.873486 110.42188 22.871094 C 110.40752 22.593597 110.39824 22.391671 110.38867 22.205078 L 106.08984 22.205078 z M 68.730469 22.214844 L 68.730469 22.917969 L 71.201172 22.917969 L 71.201172 23.556641 C 71.201172 24.810161 71.203564 26.062886 71.201172 27.316406 C 71.19878 27.636963 71.127132 27.952489 71.658203 27.945312 C 72.158176 27.938136 72.087891 27.641263 72.087891 27.339844 L 72.087891 25.244141 L 72.087891 22.896484 C 72.946696 22.896484 73.742606 22.895606 74.570312 22.900391 L 74.570312 22.214844 L 68.730469 22.214844 z M 55.208984 22.751953 C 55.211377 22.763914 55.212452 22.776662 55.214844 22.791016 C 55.322493 22.791016 55.42946 22.788184 55.537109 22.792969 C 57.917363 22.857559 58.162006 24.505502 57.800781 26.007812 C 57.659641 26.589121 57.240147 26.958423 56.666016 27.121094 C 55.75219 27.379453 54.826374 27.398303 53.910156 27.154297 C 53.022645 26.917468 52.568935 26.338971 52.501953 25.417969 C 52.485208 25.185924 52.482619 24.950795 52.492188 24.71875 C 52.53764 23.656607 53.040737 23.080049 54.095703 22.888672 C 54.464104 22.82169 54.838191 22.795013 55.208984 22.751953 z M 98.408203 22.824219 C 99.336382 22.876847 100.25458 22.893668 101.16602 22.994141 C 101.68752 23.051554 101.89824 23.456377 101.88867 23.970703 C 101.87671 24.51852 101.64288 24.884629 101.08789 24.949219 C 100.22191 25.052084 99.345951 25.060653 98.408203 25.113281 L 98.408203 22.824219 z M 91.333984 22.974609 C 91.807643 23.898004 92.230981 24.726557 92.707031 25.652344 L 89.978516 25.652344 C 90.435429 24.752871 90.857934 23.917142 91.333984 22.974609 z "/>
    </svg>
